<svg xmlns="http://www.w3.org/2000/svg" viewBox="0 0 110.07 52.37"><defs><style>.cls-1{fill:#ff5f00;}.cls-2{fill:#fff;}</style></defs><g id="Layer_2" data-name="Layer 2"><g id="Capa_1" data-name="Capa 1"><circle class="cls-1" cx="81.64" cy="4.65" r="4.65"/><path class="cls-2" d="M40.05,43.15l-2.16,9.21a9.47,9.47,0,0,1-9.48-9.47V21.55a1.1,1.1,0,0,0-2.16-.26L20.66,45.06a9.46,9.46,0,0,1-9.22,7.3h-2A9.47,9.47,0,0,1,0,42.89V12.07H9.47V42.89a1.1,1.1,0,0,0,2.17.25l.06-.25,5.53-23.51a9.47,9.47,0,0,1,9.22-7.31h2a9.47,9.47,0,0,1,9.48,9.48V42.89A1.1,1.1,0,0,0,40.05,43.15Z"/><path class="cls-2" d="M96.94,42.89l6.51-27.67a2.57,2.57,0,0,0-2.5-3.15H77v9.48H92.49L86,49.21a2.56,2.56,0,0,0,2.49,3.15h18.66V42.89Z"/><path class="cls-2" d="M107.4,5.88a2.67,2.67,0,1,0,2.67,2.67A2.68,2.68,0,0,0,107.4,5.88Zm0,4.9a2.23,2.23,0,1,1,2.23-2.23A2.23,2.23,0,0,1,107.4,10.78Z"/><path class="cls-2" d="M108,8.72h0a.81.81,0,0,0,.35-.22.78.78,0,0,0,.22-.55.9.9,0,0,0-.13-.45.66.66,0,0,0-.35-.29,1.44,1.44,0,0,0-.57-.08h-1.27V10h.56V8.81h.46l.13,0a.66.66,0,0,1,.15.15q.09.12.24.36l.38.59h.7l-.56-.88A2,2,0,0,0,108,8.72ZM108,8a.28.28,0,0,1-.06.18.25.25,0,0,1-.15.11.87.87,0,0,1-.33,0h-.64V7.64h.72a.56.56,0,0,1,.36.09A.27.27,0,0,1,108,8Z"/><path class="cls-1" d="M75.78,12.07,68.47,43.14a1,1,0,0,1-2-.25l.72-33.62A9.55,9.55,0,0,0,57.64,0a9.3,9.3,0,0,0-5.76,2A9.82,9.82,0,0,0,48.3,7.15L37.89,52.36h2A9.45,9.45,0,0,0,49,45.21l7.43-34.37a1,1,0,0,1,1.12-.78.94.94,0,0,1,.92,1L56.83,42.89a9.47,9.47,0,0,0,9.47,9.48h2a9.48,9.48,0,0,0,9.22-7.31l7.75-33Z"/></g></g></svg>