<svg xmlns="http://www.w3.org/2000/svg" width="148.531" height="28.822" viewBox="0 0 148.531 28.822">
  <g id="Group_264" data-name="Group 264" transform="translate(-24.459 -28.89)">
    <path id="Path_1" data-name="Path 1" d="M496.982,287.129s1.579,18.161,20.925,17.964,21.122-17.964,21.122-17.964V276.272H525.013v10.857a6.837,6.837,0,0,1-7.107,5.132c-5.922-.2-6.317-5.132-6.317-5.132V276.272H496.982Z" transform="translate(-472.524 -247.382)" fill="#feff7c"/>
    <path id="Path_184" data-name="Path 184" d="M13.563-1.672,12.938-.625A9.176,9.176,0,0,1,8.438.484,6.841,6.841,0,0,1,3.125-1.562,7.513,7.513,0,0,1,1.25-6.844a9.759,9.759,0,0,1,.32-2.617,6.778,6.778,0,0,1,.813-1.9,4.554,4.554,0,0,1,1.086-1.187,20.212,20.212,0,0,1,2.008-1.219,14.635,14.635,0,0,1,2.133-1.023,6.448,6.448,0,0,1,1.984-.242,7.665,7.665,0,0,1,3.969.922q-.3,1.766-.453,3.938l-.141.125h-.641l-.141-.141a11.433,11.433,0,0,0-.172-1.766q-.109-.453-1.242-.969a5.759,5.759,0,0,0-2.414-.516,4.731,4.731,0,0,0-2.281.539A3.381,3.381,0,0,0,4.57-11.133,7.64,7.64,0,0,0,4.063-8.2a9.8,9.8,0,0,0,.406,2.8,7.271,7.271,0,0,0,1.07,2.266A4.821,4.821,0,0,0,7.3-1.687a5.374,5.374,0,0,0,2.438.547,6.256,6.256,0,0,0,1.648-.219,11.246,11.246,0,0,0,1.852-.719Zm7.153-8.922-.609-.156-.125-.156v-1.937a9.131,9.131,0,0,1,5.406-2.062,6,6,0,0,1,2.984.672,4.21,4.21,0,0,1,1.719,1.68,4.972,4.972,0,0,1,.531,2.352l-.078,3.141v4.656a2.84,2.84,0,0,0,.133,1.156.683.683,0,0,0,.3.273,2.648,2.648,0,0,0,.641.117l.891.078.125.141v.625l-.125.125Q31.372.016,30.388.016q-.938,0-2.25.094L27.9-.109l.063-2.516L24.559.031a4.812,4.812,0,0,1-1.875.359,4.722,4.722,0,0,1-2.148-.453,3.242,3.242,0,0,1-1.375-1.266A3.828,3.828,0,0,1,18.684-3.3a4.569,4.569,0,0,1,1.438-3.586q1.438-1.289,7.844-2.2a4.276,4.276,0,0,0-1.031-3.258,3.934,3.934,0,0,0-2.766-.945,4.864,4.864,0,0,0-1.648.266,2.13,2.13,0,0,0-.852.43q-.109.164-.844,1.914Zm7.25,2.469q-4.375.734-5.453,1.578a3.108,3.108,0,0,0-1.078,2.609A2.148,2.148,0,0,0,23.856-1.5q2.078,0,4.109-2.406Zm13.981-6.766.3.2q-.094,1.047-.125,2.75,1.25-1.031,2.375-2.094a2.724,2.724,0,0,1,.617-.437,5,5,0,0,1,.961-.3,6.05,6.05,0,0,1,1.375-.156,5.738,5.738,0,0,1,2.3.484,4.59,4.59,0,0,1,1.688,1.148,3.7,3.7,0,0,1,.789,1.57,9.693,9.693,0,0,1,.219,2.234v2.75q0,.266.078,3.891.031,1.484.328,1.766A3.7,3.7,0,0,0,54.791-.8l.125.125V0l-.125.125Q52.806,0,52.1,0,51.7,0,49.822.125l-.187-.172q.2-2.031.2-5.3V-7.391q0-1.844-.086-2.656a3.269,3.269,0,0,0-.523-1.477,2.96,2.96,0,0,0-1.172-1.031,3.873,3.873,0,0,0-1.75-.367,5.143,5.143,0,0,0-1.391.164,4.424,4.424,0,0,0-1.3.672,4.959,4.959,0,0,0-1.062.953,1.988,1.988,0,0,0-.414.828,11.566,11.566,0,0,0-.07,1.633v2.719q0,.344.063,2.211a20.373,20.373,0,0,0,.133,2.18.92.92,0,0,0,.211.453.647.647,0,0,0,.344.18q.2.039,1.688.133l.141.125v.656l-.125.141Q42.572,0,40.759,0q-1.8,0-3.75.125l-.141-.141V-.672L37.009-.8q1.516-.094,1.711-.141a.715.715,0,0,0,.344-.2.835.835,0,0,0,.2-.453q.055-.3.125-2.016t.07-2.586V-9.266q0-.625-.062-1.7T39.3-12.3a.487.487,0,0,0-.242-.367,1.854,1.854,0,0,0-.812-.117L36.931-12.8l-.141-.125v-.672l.125-.125A20.361,20.361,0,0,0,41.947-14.891ZM59.491-7.156a8.755,8.755,0,0,1,.766-3.586,7.042,7.042,0,0,1,2.664-2.984,7.973,7.973,0,0,1,4.508-1.258,7.215,7.215,0,0,1,5.344,2.07,7.217,7.217,0,0,1,2.063,5.32A7.882,7.882,0,0,1,72.467-1.7,7.876,7.876,0,0,1,66.756.609,6.739,6.739,0,0,1,62.85-.57a7.356,7.356,0,0,1-2.539-2.883A8.421,8.421,0,0,1,59.491-7.156Zm2.953-1.078a12.612,12.612,0,0,0,.563,3.914,6.017,6.017,0,0,0,1.781,2.773A4.148,4.148,0,0,0,67.569-.5a3.78,3.78,0,0,0,3.047-1.461,6.808,6.808,0,0,0,1.2-4.4,10.285,10.285,0,0,0-1.3-5.453,4.16,4.16,0,0,0-3.758-2.125,3.79,3.79,0,0,0-3.172,1.469A6.788,6.788,0,0,0,62.444-8.234ZM84.5-14.891l.3.2q-.172,2.047-.172,5.2v3.641a8.647,8.647,0,0,0,.3,2.781,2.275,2.275,0,0,0,1.055,1.2,3.631,3.631,0,0,0,1.781.414A4.782,4.782,0,0,0,89.847-1.9a4.3,4.3,0,0,0,1.57-1.258,5.14,5.14,0,0,0,.727-1.094,7.925,7.925,0,0,0,.125-1.578l.047-1.75V-9.266q0-.625-.062-1.7t-.1-1.328a.487.487,0,0,0-.242-.367,1.854,1.854,0,0,0-.812-.117L89.784-12.8l-.141-.125v-.672l.125-.125A20.361,20.361,0,0,0,94.8-14.891l.3.2q-.172,2.047-.172,5.2v2.75q0,.234.078,3.828a5.811,5.811,0,0,0,.164,1.617.808.808,0,0,0,.367.406,4.513,4.513,0,0,0,1.391.117h.438l.141.125v.625l-.125.141Q95.175,0,94.425,0q-.953,0-2.2.109l-.141-.125q.094-1.594.141-2.7a23.9,23.9,0,0,0-2.25,2.047,3.745,3.745,0,0,1-1.391.813,6.035,6.035,0,0,1-2.062.328,5.562,5.562,0,0,1-2.727-.555,3.1,3.1,0,0,1-1.383-1.531A9.719,9.719,0,0,1,82-4.984l.016-1.234V-9.266q0-.625-.062-1.7t-.1-1.328a.487.487,0,0,0-.242-.367,1.854,1.854,0,0,0-.812-.117L79.488-12.8l-.141-.125v-.672l.125-.125A20.361,20.361,0,0,0,84.5-14.891Z" transform="translate(75.487 50)" fill="#fff"/>
  </g>
</svg>
