<svg xmlns="http://www.w3.org/2000/svg" viewBox="0 0 271.22 129.03"><defs><style>.cls-1{fill:#ff5f00;}.cls-2{fill:#454545;}</style></defs><g id="Layer_2" data-name="Layer 2"><g id="Capa_1" data-name="Capa 1"><circle class="cls-1" cx="201.15" cy="11.47" r="11.47"/><path class="cls-2" d="M98.69,106.31,93.35,129A23.35,23.35,0,0,1,70,105.67V53.09a2.7,2.7,0,0,0-2.71-2.71,2.72,2.72,0,0,0-2.63,2.08L50.91,111a23.33,23.33,0,0,1-22.72,18H23.34A23.33,23.33,0,0,1,0,105.68V29.75H23.34v75.92a2.71,2.71,0,0,0,5.34.63l.15-.63L42.45,47.75a23.34,23.34,0,0,1,22.72-18H70A23.34,23.34,0,0,1,93.35,53.09v52.58A2.71,2.71,0,0,0,98.69,106.31Z"/><path class="cls-2" d="M238.86,105.68l16-68.18a6.31,6.31,0,0,0-6.14-7.75H189.68V53.09h38.21l-16,68.17A6.31,6.31,0,0,0,218,129h46V105.68Z"/><path class="cls-2" d="M264.64,14.48a6.59,6.59,0,1,0,6.58,6.59A6.6,6.6,0,0,0,264.64,14.48Zm0,12.09a5.5,5.5,0,1,1,5.5-5.5A5.51,5.51,0,0,1,264.64,26.57Z"/><path class="cls-2" d="M266.13,21.48h0a2.05,2.05,0,0,0,.88-.54,1.89,1.89,0,0,0,.52-1.34,2.17,2.17,0,0,0-.31-1.12,1.77,1.77,0,0,0-.85-.73,4.08,4.08,0,0,0-1.42-.19h-3.14v7h1.4V21.7h.72a2.38,2.38,0,0,1,.41,0,1.23,1.23,0,0,1,.31.14,2,2,0,0,1,.37.37,10.06,10.06,0,0,1,.6.87l.94,1.47h1.72l-1.39-2.18A4.7,4.7,0,0,0,266.13,21.48Zm0-1.88A.73.73,0,0,1,266,20a.68.68,0,0,1-.36.28,2.51,2.51,0,0,1-.83.11h-1.57v-1.6H265a1.31,1.31,0,0,1,.87.23A.69.69,0,0,1,266.1,19.6Z"/><path class="cls-1" d="M186.71,29.75l-18,76.55a2.44,2.44,0,0,1-4.84-.61l1.78-82.86C165.65,10.22,154.63,0,142,0a22.78,22.78,0,0,0-14.18,4.94c-3.93,3.11-7.62,7.52-8.83,12.68L93.36,129h4.85a23.32,23.32,0,0,0,22.61-17.63l18.3-84.67a2.5,2.5,0,0,1,2.75-1.93c2.26,0,2.28,2.39,2.28,2.39L140,105.69A23.34,23.34,0,0,0,163.36,129h4.86a23.35,23.35,0,0,0,22.72-18L210,29.75Z"/></g></g></svg>